<svg width="48" height="48" viewBox="0 0 48 48" fill="none" xmlns="http://www.w3.org/2000/svg">
<path d="M42.0001 0.900161H6.00021C5.32889 0.898583 4.66383 1.02925 4.04301 1.28469C3.42219 1.54014 2.85776 1.91537 2.38196 2.38895C1.90614 2.86253 1.52828 3.42518 1.26992 4.0448C1.01156 4.66442 0.877778 5.32884 0.876203 6.00016V42.0001C0.869835 42.6759 0.997847 43.3462 1.2528 43.9722C1.50776 44.598 1.88456 45.1671 2.36132 45.646C2.83808 46.125 3.40529 46.5045 4.02998 46.7624C4.65467 47.0202 5.32439 47.1513 6.00021 47.1482H42.0001C42.676 47.1513 43.3458 47.0202 43.9704 46.7624C44.5951 46.5045 45.1623 46.125 45.6391 45.646C46.1158 45.1671 46.4926 44.598 46.7477 43.9722C47.0025 43.3462 47.1306 42.6759 47.1241 42.0001V6.00016C47.1227 5.32884 46.9888 4.66442 46.7305 4.0448C46.4721 3.42518 46.0942 2.86253 45.6185 2.38895C45.1427 1.91537 44.5782 1.54014 43.9573 1.28469C43.3365 1.02925 42.6715 0.898583 42.0001 0.900161ZM44.1241 42.0001C44.1306 42.282 44.0803 42.5622 43.9761 42.8241C43.872 43.0862 43.7161 43.3243 43.518 43.5249C43.3198 43.7253 43.0833 43.8839 42.8224 43.9909C42.5617 44.0979 42.282 44.1515 42.0001 44.1482H6.00021C5.71833 44.1515 5.43867 44.0979 5.17791 43.9909C4.91715 43.8839 4.68062 43.7253 4.48241 43.5249C4.2842 43.3243 4.12838 43.0862 4.02423 42.8241C3.92009 42.5622 3.86975 42.282 3.87621 42.0001V6.00016C3.87618 5.72235 3.93129 5.44731 4.03832 5.19094C4.14536 4.93458 4.30218 4.70201 4.49975 4.50669C4.6973 4.31136 4.93164 4.15719 5.18919 4.05307C5.44676 3.94896 5.72241 3.89699 6.00021 3.90017H42.0001C42.278 3.89699 42.5536 3.94896 42.8112 4.05307C43.0687 4.15719 43.3031 4.31136 43.5006 4.50669C43.6982 4.70201 43.855 4.93458 43.9622 5.19094C44.0691 5.44731 44.1241 5.72235 44.1241 6.00016V42.0001Z" fill="#1D1C1D"/>
<path d="M34.884 16.596H31.2L31.716 13.1159C31.7444 12.9205 31.7339 12.7214 31.6854 12.5301C31.6368 12.3387 31.551 12.1587 31.4328 12.0005C31.1943 11.6809 30.8387 11.4692 30.444 11.4119C30.0494 11.3546 29.6481 11.4565 29.3285 11.695C29.009 11.9336 28.7972 12.2893 28.74 12.6839L28.164 16.596H22.476L22.98 13.1159C23.0207 12.916 23.0201 12.7099 22.9784 12.5101C22.9365 12.3104 22.8545 12.1213 22.7372 11.9544C22.6199 11.7875 22.4697 11.6462 22.2959 11.5393C22.122 11.4324 21.9282 11.3621 21.7263 11.3327C21.5244 11.3033 21.3186 11.3153 21.1217 11.3682C20.9246 11.421 20.7404 11.5135 20.5802 11.64C20.4201 11.7665 20.2875 11.9243 20.1905 12.1038C20.0934 12.2833 20.034 12.4807 20.016 12.6839L19.44 16.596H14.5439C14.1461 16.596 13.7646 16.754 13.4833 17.0352C13.202 17.3166 13.0439 17.6981 13.0439 18.096C13.0439 18.4938 13.202 18.8753 13.4833 19.1567C13.7646 19.4379 14.1461 19.596 14.5439 19.596H19.008L17.928 26.988H13.1279C12.7301 26.988 12.3486 27.146 12.0673 27.4272C11.786 27.7086 11.6279 28.0901 11.6279 28.488C11.6279 28.8858 11.786 29.2673 12.0673 29.5487C12.3486 29.8299 12.7301 29.988 13.1279 29.988H17.496L16.8 34.932C16.7402 35.3162 16.8318 35.7086 17.0556 36.0264C17.2796 36.3443 17.6181 36.5628 18 36.636H18.228C18.587 36.6339 18.9333 36.5033 19.2041 36.2676C19.475 36.0321 19.6523 35.7072 19.704 35.352L20.52 30H26.184L25.464 34.944C25.4055 35.3369 25.5053 35.7371 25.7415 36.0566C25.9778 36.3761 26.331 36.5888 26.724 36.648H26.952C27.311 36.6459 27.6573 36.5153 27.9281 36.2796C28.199 36.0441 28.3763 35.7192 28.428 35.364L29.22 30H33.456C33.8538 30 34.2353 29.8419 34.5167 29.5607C34.7979 29.2793 34.956 28.8978 34.956 28.5C34.956 28.1021 34.7979 27.7206 34.5167 27.4392C34.2353 27.158 33.8538 27 33.456 27H29.652L30.744 19.608H34.884C35.2818 19.608 35.6633 19.4499 35.9447 19.1687C36.2259 18.8873 36.384 18.5058 36.384 18.108C36.384 17.7101 36.2259 17.3286 35.9447 17.0472C35.6633 16.766 35.2818 16.608 34.884 16.608V16.596ZM26.628 26.988H20.952L22.032 19.596H27.708L26.628 26.988Z" fill="#1D1C1D"/>
</svg>
